<?xml version="1.0" standalone="no"?>
<!DOCTYPE svg PUBLIC "-//W3C//DTD SVG 20010904//EN"
 "http://www.w3.org/TR/2001/REC-SVG-20010904/DTD/svg10.dtd">
<svg version="1.0" xmlns="http://www.w3.org/2000/svg"
 width="260.000000pt" height="260.000000pt" viewBox="0 0 260.000000 260.000000"
 preserveAspectRatio="xMidYMid meet">
<metadata>
Created by potrace 1.11, written by Peter Selinger 2001-2013
</metadata>
<g transform="translate(0.000000,260.000000) scale(0.100000,-0.100000)"
fill="#000000" stroke="none">
<path d="M642 2106 c-5 -6 -17 -33 -27 -61 -9 -27 -30 -78 -46 -113 -16 -35
-29 -67 -29 -71 0 -4 -6 -21 -14 -37 -8 -16 -123 -290 -256 -608 -132 -319
-243 -583 -246 -588 -3 -4 160 -7 361 -6 l366 3 40 95 c21 52 43 104 49 115 5
11 18 43 29 70 10 28 30 75 43 105 27 62 53 126 62 154 4 12 12 16 22 12 14
-5 15 -4 5 8 -7 8 -8 17 -3 20 8 5 34 -59 36 -89 1 -5 4 -12 8 -15 3 -3 8 -14
10 -25 1 -11 7 -23 12 -26 4 -4 9 -21 11 -38 1 -17 6 -35 10 -39 5 -4 5 -1 1
6 -4 6 -5 12 -2 12 3 0 10 -10 17 -21 8 -17 8 -20 -1 -14 -7 4 -4 -4 5 -19 10
-14 13 -26 9 -26 -5 0 -2 -5 6 -10 13 -9 13 -11 0 -20 -13 -8 -12 -10 3 -10
10 0 16 -4 13 -9 -4 -5 -1 -11 5 -13 6 -2 12 -16 12 -31 1 -15 6 -27 10 -27 5
0 5 -4 2 -10 -3 -5 -2 -10 3 -10 5 0 15 -19 22 -42 17 -55 18 -61 5 -71 -6 -4
-1 -7 10 -5 14 2 21 -3 23 -17 3 -20 10 -20 368 -19 201 1 370 6 374 10 7 7
263 612 345 814 22 56 90 219 106 255 15 35 96 230 101 245 4 8 22 51 41 96
l35 81 -365 -1 -364 -1 -60 -145 c-69 -167 -190 -454 -193 -457 -1 -1 -55 134
-120 301 l-117 303 -365 0 c-253 0 -367 -3 -372 -11z"/>
</g>
</svg>
